<svg width="20" height="20" viewBox="0 0 20 20" fill="none" xmlns="http://www.w3.org/2000/svg">
<path d="M4.44477 2.50001C6.49515 2.49714 8.47408 3.23924 10.0003 4.58333V17.5C8.47408 16.1559 6.49515 15.4138 4.44477 15.4167C3.14309 15.4167 2.49226 15.4167 2.20471 15.2327C2.03208 15.1222 1.96154 15.0516 1.85104 14.8789C1.66699 14.5914 1.66699 14.0784 1.66699 13.0524V5.33602C1.66699 4.14619 1.66699 3.55128 2.12428 3.06905C2.58156 2.58682 3.04968 2.56193 3.98593 2.51217C4.13783 2.50409 4.29081 2.50001 4.44477 2.50001Z" stroke="#38BDF8" stroke-width="1.5" stroke-linecap="round" stroke-linejoin="round"/>
<path d="M15.5556 2.50001C13.5052 2.49714 11.5263 3.23924 10 4.58333V17.5C11.5263 16.1559 13.5052 15.4138 15.5556 15.4167C16.8573 15.4167 17.5081 15.4167 17.7956 15.2327C17.9682 15.1222 18.0388 15.0516 18.1493 14.8789C18.3333 14.5914 18.3333 14.0784 18.3333 13.0524V5.33602C18.3333 4.14619 18.3333 3.55128 17.8761 3.06905C17.4187 2.58682 16.9507 2.56193 16.0144 2.51217C15.8625 2.50409 15.7095 2.50001 15.5556 2.50001Z" stroke="#38BDF8" stroke-width="1.5" stroke-linecap="round" stroke-linejoin="round"/>
</svg>
