<svg width="30" height="30" viewBox="0 0 30 30" fill="none" xmlns="http://www.w3.org/2000/svg">
<path d="M26.81 13.75C26.853 14.1608 26.875 14.5779 26.875 15C26.875 21.5584 21.5584 26.875 15 26.875C12.9649 26.875 11.0493 26.363 9.375 25.4609C7.03971 24.2025 5.46828 25.3724 4.0824 25.5823C3.87217 25.6141 3.6628 25.5378 3.51246 25.3875C3.28426 25.1593 3.24083 24.8064 3.36688 24.5093C3.91081 23.2273 4.41025 20.7978 3.72926 18.75C3.33725 17.5713 3.125 16.3104 3.125 15C3.125 8.44161 8.44161 3.125 15 3.125C15.4221 3.125 15.8393 3.14703 16.25 3.19" stroke="#CBD5E1" stroke-width="1.5" stroke-linecap="round" stroke-linejoin="round"/>
<path d="M22.4617 3.15632C22.4702 3.11456 22.5299 3.11456 22.5384 3.15632C22.9815 5.32427 24.6758 7.01851 26.8437 7.46162C26.8855 7.47016 26.8855 7.52984 26.8437 7.53837C24.6758 7.98149 22.9815 9.67572 22.5384 11.8437C22.5299 11.8854 22.4702 11.8854 22.4617 11.8437C22.0185 9.67572 20.3243 7.98149 18.1564 7.53837C18.1145 7.52984 18.1145 7.47016 18.1564 7.46162C20.3243 7.01851 22.0185 5.32427 22.4617 3.15632Z" stroke="#CBD5E1" stroke-width="1.5" stroke-linecap="round" stroke-linejoin="round"/>
<path d="M15.1571 15H15.0009M10.1562 15H10M15.3134 15C15.3134 15.1726 15.1735 15.3125 15.0009 15.3125C14.8284 15.3125 14.6884 15.1726 14.6884 15C14.6884 14.8274 14.8284 14.6875 15.0009 14.6875C15.1735 14.6875 15.3134 14.8274 15.3134 15ZM10.3125 15C10.3125 15.1726 10.1726 15.3125 10 15.3125C9.82741 15.3125 9.6875 15.1726 9.6875 15C9.6875 14.8274 9.82741 14.6875 10 14.6875C10.1726 14.6875 10.3125 14.8274 10.3125 15Z" stroke="#CBD5E1" stroke-width="1.5" stroke-linecap="round" stroke-linejoin="round"/>
</svg>
