<svg width="20" height="20" viewBox="0 0 20 20" fill="none" xmlns="http://www.w3.org/2000/svg">
<path d="M5.83301 9.16675V7.50008C5.83301 4.75022 5.83301 3.37529 6.68728 2.52102C7.54155 1.66675 8.91651 1.66675 11.6663 1.66675C14.4162 1.66675 15.7911 1.66675 16.6454 2.52102C17.4997 3.37529 17.4997 4.75022 17.4997 7.50008V9.16675C17.4997 11.9166 17.4997 13.2915 16.6454 14.1458C15.7911 15.0001 14.4162 15.0001 11.6663 15.0001C8.91651 15.0001 7.54155 15.0001 6.68728 14.1458C5.83301 13.2915 5.83301 11.9166 5.83301 9.16675Z" stroke="#64748B" stroke-width="1.5" stroke-linecap="round" stroke-linejoin="round"/>
<path d="M2.5 5V12.5C2.5 15.2498 2.5 16.6247 3.35427 17.4791C4.20854 18.3333 5.58348 18.3333 8.33333 18.3333H14.1667" stroke="#64748B" stroke-width="1.5" stroke-linecap="round" stroke-linejoin="round"/>
</svg>
