<svg width="40" height="40" viewBox="0 0 40 40" fill="none" xmlns="http://www.w3.org/2000/svg">
<path d="M33.3337 23.3419V17.7676C33.3337 16.4045 33.3337 15.723 33.08 15.1101C32.8262 14.4973 32.3445 14.0154 31.381 13.0515L23.4868 5.15385C22.6553 4.322 22.2397 3.90609 21.7245 3.65964C21.6173 3.60839 21.5077 3.56289 21.3957 3.52335C20.8572 3.33325 20.2693 3.33325 19.0933 3.33325C13.685 3.33325 10.9808 3.33325 9.14921 4.81069C8.77918 5.10915 8.44213 5.44637 8.14378 5.81655C6.66699 7.64897 6.66699 10.3543 6.66699 15.7651V23.3419C6.66699 29.6301 6.66699 32.7741 8.61961 34.7276C10.1914 36.3001 12.5344 36.6068 16.667 36.6666M21.667 4.16695V5.00064C21.667 9.71674 21.667 12.0748 23.1315 13.5399C24.596 15.005 26.953 15.005 31.667 15.005H32.5003" stroke="#009689" stroke-width="2.5" stroke-linecap="round" stroke-linejoin="round"/>
<path d="M25.848 24.7026C26.1522 23.9881 27.1812 23.9881 27.4853 24.7026L28.8882 27.9981L32.515 28.2821C33.3037 28.344 33.6222 29.3133 33.0197 29.8176L30.261 32.1265L31.1058 35.587C31.2902 36.3416 30.4572 36.94 29.7827 36.5375L26.6667 34.678L23.5507 36.5375C22.8762 36.94 22.0432 36.3416 22.2275 35.587L23.0723 32.1265L20.3137 29.8176C19.7112 29.3133 20.0297 28.344 20.8183 28.2821L24.4452 27.9981L25.848 24.7026Z" fill="#009689" stroke="#009689" stroke-width="2.5" stroke-linecap="round" stroke-linejoin="round"/>
</svg>
