<svg width="30" height="30" viewBox="0 0 30 30" fill="none" xmlns="http://www.w3.org/2000/svg">
<path d="M16.1155 3.51227L26.8595 11.9943C27.264 12.3137 27.5 12.8006 27.5 13.316C27.5 14.2461 26.7461 15 25.816 15H25V19.375C25 22.9105 25 24.6783 23.9016 25.7766C22.8032 26.875 21.0355 26.875 17.5 26.875H12.5C8.96446 26.875 7.1967 26.875 6.09835 25.7766C5 24.6783 5 22.9105 5 19.375V15H4.18395C3.25394 15 2.5 14.2461 2.5 13.316C2.5 12.8006 2.736 12.3137 3.1405 11.9943L13.8845 3.51227C14.2021 3.26144 14.5951 3.125 15 3.125C15.4049 3.125 15.7979 3.26144 16.1155 3.51227Z" stroke="#CBD5E1" stroke-width="1.5" stroke-linecap="round" stroke-linejoin="round"/>
<path d="M18.5 27V19.9286C18.5 18.4599 18.5 17.7256 18.2186 17.1786C18.0344 16.8203 17.7692 16.5227 17.45 16.3159C16.9627 16 16.3084 16 15 16C13.6916 16 13.0373 16 12.55 16.3159C12.2308 16.5227 11.9657 16.8203 11.7813 17.1786C11.5 17.7256 11.5 18.4599 11.5 19.9286V27" stroke="#FBFAF9" stroke-width="1.5" stroke-linecap="round" stroke-linejoin="round"/>
</svg>
